<?xml version="1.0" encoding="UTF-8"?>
<svg id="Layer_1" data-name="Layer 1" xmlns="http://www.w3.org/2000/svg" version="1.1" viewBox="0 0 292 96">
  <defs>
    <style>
      .cls-1 {
        fill: #f15a29;
        stroke-width: 0px;
      }
    </style>
  </defs>
  <path class="cls-1" d="M37.3,2.5C13.8,7.6-2.2,31.5,1.8,55.3c.7,4,2.6,10,4.2,13.4,6.4,13.1,21.8,24,35.6,25.1,6.1.4,6.7.3,6.1-1.2s-.7-3.1-.7-4.7c0-2.3-.4-2.9-2.2-2.9-6.7-.1-16.7-8.5-18.7-15.7-.6-2.1-1.1-11.5-1.1-20.9,0-15.3.2-17.3,1.8-18.7,2.5-2.3,4.8-2.1,6.6.5,1.3,1.8,1.6,5.2,1.6,15.8s.5,16,4.2,16,3.8-3.5,3.8-17.3.2-13.6,1.8-15c2.3-2.1,3.3-2.1,5.8-.3,1.7,1.3,2,3.1,2.4,16.8l.5,15.3,2.7.3c4,.5,4.8-2.5,4.8-17.8s.3-13.2,1.6-14.4c1.8-1.9,2.8-2,5.5-.6,1.8,1,1.9,2.4,1.9,24.3s.5,24.9-10.2,34.3c-3.7,3.2-6.3,6.1-5.7,6.3,2.4.8,15.5-4.5,20.8-8.4,12.7-9.4,19-21.9,19.1-38.2,0-21.6-15.2-40.3-36.9-44.9-8-1.7-11.7-1.7-19.8.1Z"/>
  <path class="cls-1" d="M143.8,19.1c-1.5.8-1.8,2.5-1.8,10.7s-.3,11.4-.6,13.4l-.7,3.8h-15.3v-26.4c.1,0-2.7-1-2.7-1-2.1-.8-3.5-.7-5.5.5-2.7,1.5-2.7,1.6-3.2,14.4-.5,12.9-.5,13-2.8,12.7-2.7-.4-5.2,1.4-5.2,3.5s1.6,3,3.5,4.7q3.4,3.2,3.7,13.1l.3,10,4.5.3c6.7.4,7.4-.5,7.6-9.5,0-4.3.2-8.6.2-9.6.2-1.4,1.3-1.7,7.7-1.7h7.4l.3,10.3.3,10.2h5c4.3,0,5.1-.3,6.1-2.5,1.4-3,3-55.5,1.7-56.3-2-1.2-9-1.6-10.5-.6Z"/>
  <path class="cls-1" d="M203.6,21.1c-2.1,1.8-4.3,5.2-5.6,8.5-2.5,6.8-3.5,20.5-2.2,29.4,1,6.1.9,6.6-1.1,8.3-2.1,1.8-2.2,1.8-4-.5-1.8-2.1-1.9-3.4-1.3-14.7.5-8.7.3-12.8-.5-13.7-1.2-1.5-5.1-1.9-6.2-.7-.4.3-3.5.5-7,.4-5.2-.2-6.8.2-9.2,2.1-9,7-12.5,17.1-9.5,27.8,2.5,9.2,14.2,14.1,20.6,8.7l2.9-2.5,2.8,2.4c3.8,3.2,12,3.4,15.3.3l2.2-2.1,4.5,2.6c6.5,3.9,11.9,3.4,17.4-1.6l2.2-2,3.7,2.8c4.8,3.7,13.3,4.1,17.5.9,3.4-2.6,6.8-7.4,8.4-12.2.9-2.4,1.5-3.2,1.8-2.3.3.8,1.1,3.2,1.7,5.2s2.9,5.2,5,7.2c12,10.9,28,.5,28-18.2s-1.6-11.8-6.3-15.9c-8.9-7.8-20.6-4.2-26.3,8.1l-2.3,4.9-1.1-4.2c-1.3-5.1-7.5-11.6-11.9-12.6-4.6-1-10.8.4-14.1,3.1-4.7,4-8,11.8-8,19s-.3,6.5-2.7,8.4c-3.9,3-6.6,2.3-7.7-2.1-.8-3.1-.5-4.1,1.6-7,8.2-10.9,11.9-26,8.4-34.3-3-7.2-11-8.9-17-3.5ZM210,41.1c-1.1,3.8-2.3,6.9-2.7,6.9-1.1,0,.5-10.6,2.3-14.6,1.5-3.5,1.8-3.6,2.1-1.6.3,1.3-.5,5.4-1.7,9.3ZM177.7,53.4c-.7,7.4-3.4,13.9-6,14.4-2.8.5-5-5.9-3.7-10.6,1.7-6.3,4.6-10.2,7.6-10.2h2.7l-.6,6.4ZM242.4,50.9c2.3,2.5,3,8.9,1.4,12.1-.8,1.3-2.5,3-3.8,3.7-2.2,1.2-2.7,1-4.7-1.3-3.2-3.6-3.1-9.3.3-13.3,3-3.6,4.4-3.8,6.8-1.2ZM277.9,51.6c2.4,3.1,2.8,9.9.7,12.6-.7,1-2.5,2.2-4,2.7-2.4,1-2.8.8-4.6-2.2-2.9-4.8-2.3-9.4,2-13.7s3.4-2.5,5.9.6Z"/>
</svg>